# xmcd CD database file
#
# Track frame offsets:
#	150
#	15800
#	34307
#	54990
#	74557
#	107072
#	121060
#	143360
#	167635
#
# Disc length: 2239 seconds
#
# Revision: 1
# Processed by: cddbd v1.5.1PL0 Copyright (c) Steve Scherf et al.
# Submitted via: CDex 1.51
#
DISCID=6a08bd09
DTITLE=アポジーズ - デビル★ポップ
DYEAR=1999
DGENRE=Rock
TTITLE0=エンジェル★ロック
TTITLE1=夕立の予感
TTITLE2=動物誌
TTITLE3=冬の煙草
TTITLE4=永遠の1/2
TTITLE5=マイナスドライバー
TTITLE6=ペンタゴン
TTITLE7=深い眠り
TTITLE8=アポジーズホームページ
EXTD=YEAR: 1999
EXTT0=
EXTT1=
EXTT2=
EXTT3=
EXTT4=
EXTT5=
EXTT6=
EXTT7=
EXTT8=
PLAYORDER=
